:SAMPLES-PER-SECOND 30
:FRAME-RANGE 1-3358
:FULLY-SPECIFIED
:DEGREES
1575
root  -34.6617 39.0054 40.3413 -5.50791 57.1381 -6.81757
RightUpLeg  9.74365 -6.63261 -0.396884
RightLeg  6.32799 -15.2905 1.20313
RightFoot  -11.718 -0.0432539 11.0946
RightToes  -5.8209e-011 0 -3.6325e-017
Spine  10.2503 5.55651 13.9642
Spine1  -4.70092 8.13907 -10.3903
HEad  -21.1061 65.0602 -26.9003
LeftShoulder1  0.770605 1.5749 -33.8588
LeftArm  12.727 4.5146 -31.852
LeftForeArm  4.45073 -10.8168 -14.4762
LeftHand  0.347549 -3.2977 -4.41043
RightShoulder  8.05111 10.8578 49.1051
RightArm  28.4309 -2.28115 17.5707
RightForeArm  -5.48606 30.7433 7.02153
RightHand  0.368354 6.15489 3.35922
LeftUpLeg  -23.7194 12.673 -4.87974
LeftLeg  17.0832 1.49563 0.839075
LeftFoot  -5.42266 0.46634 -8.38273
LeftToes  -4.03819e-010 -8.71445e-011 8.52097e-011
1576
root  -33.3118 38.7199 41.4901 -6.36478 58.7215 -7.5965
RightUpLeg  13.6275 -6.38714 0.211584
RightLeg  5.08674 -16.7686 1.58785
RightFoot  -13.2167 0.117064 12.6084
RightToes  -5.8209e-011 0 -3.6325e-017
Spine  9.82504 6.12296 14.5488
Spine1  -4.53942 8.95572 -11.8082
HEad  -25.62 67.1207 -30.4995
LeftShoulder1  0.668699 1.83125 -33.8839
LeftArm  7.87228 5.84224 -29.5701
LeftForeArm  4.89452 -8.38592 -15.5752
LeftHand  0.303549 -2.28523 -4.41562
RightShoulder  8.52404 11.9927 48.1692
RightArm  25.5934 -1.83917 17.4493
RightForeArm  -4.59056 32.9751 7.56426
RightHand  0.364409 5.90312 3.40819
LeftUpLeg  -22.0551 7.18265 -3.0195
LeftLeg  6.46055 12.2918 -3.16663
LeftFoot  -4.92492 0.646064 -10.9753
LeftToes  -4.03819e-010 -8.71445e-011 8.52097e-011
1577
root  -31.809 38.2592 42.6534 -8.3681 61.3321 -9.27924
RightUpLeg  17.3052 -7.03643 0.496103
RightLeg  5.98035 -17.4399 2.35421
RightFoot  -15.2714 0.401837 14.6735
RightToes  -5.8209e-011 0 -3.6325e-017
Spine  8.88703 6.44214 14.7581
Spine1  -4.05492 9.3803 -12.4656
HEad  -28.7357 67.9099 -32.58
LeftShoulder1  0.594558 2.00538 -33.5825
LeftArm  3.66276 6.89053 -27.6204
LeftForeArm  4.95651 -6.06841 -16.3574
LeftHand  0.266566 -1.61754 -4.28771
RightShoulder  8.61407 12.4564 47.2462
RightArm  24.5769 -1.60097 17.1387
RightForeArm  -4.94758 33.7472 7.79593
RightHand  0.365719 5.78584 3.46436
LeftUpLeg  -20.4519 4.48236 -2.89669
LeftLeg  0.502561 21.582 -6.65805
LeftFoot  -4.11171 0.88774 -13.6119
LeftToes  -4.03819e-010 -8.71445e-011 8.52097e-011
1578
root  -30.2086 37.7338 43.8187 -11.0509 64.4351 -11.6617
RightUpLeg  20.2209 -11.9538 -1.12814
RightLeg  9.78075 -12.784 2.82959
RightFoot  -16.99 0.755616 17.5413
RightToes  -5.8209e-011 0 -3.6325e-017
Spine  8.05921 6.82675 14.1447
Spine1  -3.98964 9.66587 -12.3985
HEad  -29.6033 67.8601 -32.722
LeftShoulder1  0.491259 2.24764 -33.0117
LeftArm  0.390219 8.03655 -26.2019
LeftForeArm  5.11103 -4.8281 -16.5464
LeftHand  0.225096 -1.15286 -3.90286
RightShoulder  8.28483 12.1341 46.3586
RightArm  24.8259 -1.82834 16.9294
RightForeArm  -5.30261 32.7172 7.53281
RightHand  0.381127 5.91667 3.57445
LeftUpLeg  -20.2466 4.50647 -4.99294
LeftLeg  2.17438 25.8062 -6.41858
LeftFoot  -2.44144 0.16656 -1.95173
LeftToes  -4.03819e-010 -8.71445e-011 8.52097e-011
1579
root  -28.6121 37.2164 44.9022 -12.4467 67.4437 -12.2811
RightUpLeg  22.4596 -26.4835 -8.50008
RightLeg  19.2108 4.5926 1.56939
RightFoot  -17.1487 1.07934 23.2928
RightToes  -5.8209e-011 0 -3.6325e-017
Spine  8.5022 7.25573 12.4498
Spine1  -4.57538 9.99269 -12.6758
HEad  -31.2852 67.3238 -33.2044
LeftShoulder1  0.363859 2.56061 -32.4777
LeftArm  -1.72713 9.09728 -24.8817
LeftForeArm  5.17807 -4.82509 -16.3391
LeftHand  0.23938 -1.13363 -4.17164
RightShoulder  8.08667 11.7221 46.4805
RightArm  26.7876 -2.44314 15.8958
RightForeArm  -7.15793 30.7976 7.12296
RightHand  0.353825 5.93061 3.29012
LeftUpLeg  -22.0311 5.78129 -8.96495
LeftLeg  10.9967 23.4535 -0.441811
LeftFoot  0.284471 -1.87396 18.224
LeftToes  -4.03819e-010 -8.71445e-011 8.52097e-011
